<?xml version="1.0" standalone="no"?>
<!DOCTYPE svg PUBLIC "-//W3C//DTD SVG 20010904//EN"
 "http://www.w3.org/TR/2001/REC-SVG-20010904/DTD/svg10.dtd">
<svg version="1.0" xmlns="http://www.w3.org/2000/svg"
 width="4000.000000pt" height="4000.000000pt" viewBox="0 0 4000.000000 4000.000000"
 preserveAspectRatio="xMidYMid meet">

<g transform="translate(0.000000,4000.000000) scale(0.100000,-0.100000)"
fill="#000000" stroke="none">
<path d="M8167 20772 c-2732 -5746 -4978 -10471 -4992 -10500 l-24 -52 2566 2
2565 3 897 1887 896 1888 5343 -3 5344 -2 898 -1885 898 -1885 2626 -3 2626
-2 -9 22 c-5 13 -2246 4737 -4980 10498 l-4970 10475 -2358 2 -2358 3 -4968
-10448z m7363 4473 c222 -601 388 -1004 613 -1490 71 -154 187 -404 257 -556
70 -152 185 -406 255 -565 71 -159 609 -1298 1197 -2532 587 -1233 1068 -2247
1068 -2252 0 -7 -1270 -10 -3510 -10 l-3509 0 38 83 c21 45 492 1036 1046
2202 554 1166 1054 2230 1110 2365 163 388 255 597 447 1020 610 1338 669
1472 804 1813 45 113 81 192 85 185 4 -7 48 -125 99 -263z"/>
<path d="M22150 31155 c-12 -30 -20 -63 -17 -73 2 -9 981 -2195 2174 -4857
1194 -2662 2366 -5276 2605 -5810 240 -533 983 -2192 1652 -3685 670 -1493
1223 -2724 1230 -2735 7 -11 415 -864 906 -1895 491 -1031 896 -1878 899
-1883 4 -4 1187 -6 2629 -5 l2622 3 -4980 10495 -4979 10495 -2359 3 -2360 2
-22 -55z"/>
<path d="M13081 12082 c-23 -45 -797 -1671 -852 -1790 l-38 -82 2566 2 2565 3
449 945 c247 519 449 948 449 952 0 5 -1152 8 -2560 8 l-2560 0 -19 -38z"/>
</g>
</svg>
